<svg width="32" height="32" viewBox="0 0 32 32" fill="none" xmlns="http://www.w3.org/2000/svg">
<path d="M16.6689 31.9854C16.4471 31.9945 16.2241 32 16 32C15.7759 32 15.5529 31.9945 15.3311 31.9854H16.6689ZM16 0C24.8366 0 32 7.16344 32 16C32 21.4921 29.2318 26.3364 25.0156 29.2178C22.3624 27.7348 19.3483 26.9405 16.2588 26.9404C13.0601 26.9404 9.94196 27.7913 7.22168 29.377C2.8723 26.517 0 21.5945 0 16C0 7.16344 7.16344 1.22417e-06 16 0ZM15.6094 6.73145C15.5455 4.43908 12.119 4.43186 12.0527 6.73145V9.69727C11.4111 9.62131 11.0949 8.85847 11.0498 8.25879H11.0518C10.9041 7.32674 10.0278 6.6837 9.08105 6.8125C8.13443 6.94014 7.46701 7.79387 7.5791 8.72949C7.96705 12.4036 10.734 13.0383 11.9062 13.1416C12.1099 13.1645 12.2783 13.307 12.332 13.502C12.9823 15.5998 14.2231 18.2534 14.6025 20.4404C14.6486 20.6788 14.4315 20.9569 14.1719 20.833V20.8311C12.0662 19.9387 10.5877 18.0217 10.2754 15.7793L10.2793 15.0088C10.2702 14.0374 9.47031 13.2566 8.4873 13.2578C7.50296 13.2592 6.70534 14.043 6.69922 15.0146V16.1816C6.1425 16.6903 4.49977 18.2544 4.47656 18.2783C2.91987 19.8017 5.04342 22.0895 6.68066 20.6641C6.68066 20.6641 7.82985 19.6008 7.83594 19.5947C8.48381 20.9422 9.87455 21.9005 11.0615 22.7891C12.252 23.7438 14.1767 24.651 14.542 26.1582C15.7961 26.033 17.06 26.047 18.3115 26.1963C18.5787 25.3955 19.1936 24.7549 19.9902 24.4502L22.4219 23.4697C24.0823 22.8062 25.4671 21.608 26.3516 20.0703C27.2068 18.5553 28.5325 14.4848 25.6045 14.416C24.6458 14.5041 23.9363 15.3329 24.0059 16.2793C23.7362 18.0736 22.5439 19.6016 20.8555 20.3184L19.0732 21.0703C18.8707 21.1654 18.6322 21.1547 18.4395 21.0391C18.2467 20.9247 18.1267 20.7216 18.1182 20.5C17.9986 19.2574 17.6869 18.0415 17.1953 16.8916C17.0709 16.6112 17.1709 16.2822 17.4316 16.1172C18.3076 15.5861 19.1303 14.9726 19.8867 14.2861C20.3381 13.9117 21.1642 14.0193 21.7461 13.876H21.7451C22.9284 13.6531 23.9799 12.9869 24.6777 12.0176L25.9219 10.4824L25.9209 10.4805C26.399 9.92289 26.3798 9.10026 25.876 8.56445C25.3733 8.02989 24.5445 7.9485 23.9443 8.37598L21.8535 9.89844V6.90918C21.7132 4.43565 18.1832 4.54868 18.249 7.19434C18.2344 7.71458 18.2936 9.66846 18.1973 10.1357C17.9495 11.5661 17.0284 12.3586 15.8086 12.9932C15.5085 11.4156 15.6338 8.37434 15.6094 6.73145Z" fill="url(#paint0_radial_5_175)"/>
<defs>
<radialGradient id="paint0_radial_5_175" cx="0" cy="0" r="1" gradientUnits="userSpaceOnUse" gradientTransform="translate(16 16) rotate(90) scale(16)">
<stop stop-color="#21BCEE"/>
<stop offset="0.5" stop-color="#116BF8"/>
<stop offset="1" stop-color="#052698"/>
</radialGradient>
</defs>
</svg>
