<svg width="120" height="24" viewBox="0 0 120 24" fill="none" xmlns="http://www.w3.org/2000/svg">
<g clip-path="url(#clip0_19_44)">
<path d="M12 2.163C15.204 2.163 15.584 2.175 16.85 2.233C20.102 2.381 21.621 3.924 21.769 7.152C21.827 8.417 21.838 8.797 21.838 12.001C21.838 15.206 21.826 15.585 21.769 16.85C21.62 20.075 20.105 21.621 16.85 21.769C15.584 21.827 15.206 21.839 12 21.839C8.796 21.839 8.416 21.827 7.151 21.769C3.891 21.62 2.38 20.07 2.232 16.849C2.174 15.584 2.162 15.205 2.162 12C2.162 8.796 2.175 8.417 2.232 7.151C2.381 3.924 3.896 2.38 7.151 2.232C8.417 2.175 8.796 2.163 12 2.163ZM12 0C8.741 0 8.333 0.014 7.053 0.072C2.695 0.272 0.273 2.69 0.073 7.052C0.014 8.333 0 8.741 0 12C0 15.259 0.014 15.668 0.072 16.948C0.272 21.306 2.69 23.728 7.052 23.928C8.333 23.986 8.741 24 12 24C15.259 24 15.668 23.986 16.948 23.928C21.302 23.728 23.73 21.31 23.927 16.948C23.986 15.668 24 15.259 24 12C24 8.741 23.986 8.333 23.928 7.053C23.732 2.699 21.311 0.273 16.949 0.073C15.668 0.014 15.259 0 12 0ZM12 5.838C8.597 5.838 5.838 8.597 5.838 12C5.838 15.403 8.597 18.163 12 18.163C15.403 18.163 18.162 15.404 18.162 12C18.162 8.597 15.403 5.838 12 5.838ZM12 16C9.791 16 8 14.21 8 12C8 9.791 9.791 8 12 8C14.209 8 16 9.791 16 12C16 14.21 14.209 16 12 16ZM18.406 4.155C17.61 4.155 16.965 4.8 16.965 5.595C16.965 6.39 17.61 7.035 18.406 7.035C19.201 7.035 19.845 6.39 19.845 5.595C19.845 4.8 19.201 4.155 18.406 4.155Z" fill="white"/>
</g>
<g clip-path="url(#clip1_19_44)">
<path fill-rule="evenodd" clip-rule="evenodd" d="M72 3C72 1.34423 70.6558 0 69 0H51C49.3442 0 48 1.34423 48 3V21C48 22.6558 49.3442 24 51 24H69C70.6558 24 72 22.6558 72 21V3Z" fill="white"/>
<path d="M54.8816 8.37402H50.8616V20.466H54.8816V8.37402Z" fill="#21BCEE"/>
<path d="M52.899 2.54395C51.5236 2.54395 50.625 3.44816 50.625 4.6333C50.625 5.79355 51.4963 6.72271 52.8458 6.72271H52.8718C54.2735 6.72271 55.146 5.79355 55.146 4.6333C55.1199 3.44816 54.2736 2.54395 52.899 2.54395Z" fill="#21BCEE"/>
<path d="M64.7475 8.08984C62.6151 8.08984 61.66 9.26252 61.1252 10.0862V8.37419H57.1062C57.1595 9.50842 57.1062 20.4661 57.1062 20.4661H61.1251V13.7131C61.1251 13.3517 61.1511 12.9903 61.2576 12.732C61.5477 12.0101 62.2094 11.2623 63.3198 11.2623C64.7735 11.2623 65.3559 12.3716 65.3559 13.9964V20.4661H69.375V13.5319C69.375 9.81766 67.3919 8.08984 64.7475 8.08984Z" fill="#21BCEE"/>
</g>
<path d="M114.9 1.15283H118.582L110.54 10.3418L120 22.8478H112.595L106.791 15.2648L100.157 22.8478H96.469L105.069 13.0168L96 1.15283H103.593L108.834 8.08383L114.9 1.15283ZM113.607 20.6468H115.646L102.482 3.23883H100.292L113.607 20.6468Z" fill="white"/>
<defs>
<clipPath id="clip0_19_44">
<rect width="24" height="24" fill="white"/>
</clipPath>
<clipPath id="clip1_19_44">
<rect width="24" height="24" fill="white" transform="translate(48)"/>
</clipPath>
</defs>
</svg>
